<svg id="Layer_1" data-name="Layer 1" xmlns="http://www.w3.org/2000/svg" viewBox="0 0 288 384.1"><defs><style>.cls-1{fill:#fff;}</style></defs><title>social-google</title><path class="cls-1" d="M325.86,275.56l-18.19-13.65-.06-.05c-5.83-4.58-10-8.31-10-14.68,0-7,5-11.82,10.9-17.44l.47-.45c20-15.17,44.73-34.29,44.73-74.56,0-26.93-11.92-44.73-23.28-57.73h13l60.32-33H270.31c-25.32,0-62.68,3.22-94.56,28.58l-.13.25c-21.81,18.11-34.83,44.58-34.83,70.69A82.28,82.28,0,0,0,164.68,221c21.43,21.58,48.3,26.13,67.07,26.13,1.46,0,3,0,4.47-.09A41,41,0,0,0,235,257.32a46.81,46.81,0,0,0,8.08,26.2c-24,1.93-58.15,6.48-84.9,22.28-39.33,22.56-42.4,55.88-42.4,65.55,0,38.21,35.71,76.76,115.48,76.76,91.61,0,139.54-49.79,139.54-99C370.78,312,347.95,293.46,325.86,275.56ZM200.49,139.89c0-13.36,3-23.46,9.26-30.9,6.51-7.85,18.18-13.13,29-13.13,19.88,0,32.94,15,40.39,27.6,9.2,15.54,14.91,36.1,14.91,53.64,0,4.94,0,20-10.19,29.8-7,6.69-18.71,11.35-28.59,11.35-20.5,0-33.45-14.71-40.71-27A107.44,107.44,0,0,1,200.49,139.89ZM321.6,368c0,27.44-25.21,44.49-65.8,44.49-48.06,0-80.35-20.6-80.35-51.26,0-26.14,21.54-36.79,37.8-42.52,18.94-6.06,44.3-7.3,50.06-7.3,3.91,0,6.09,0,8.68.23C308.7,336.82,321.6,347.73,321.6,368Z" transform="translate(-115.76 -64)"/></svg>